<mxfile>
  <diagram>
    <mxGraphModel dx="4000" dy="4000" grid="1" gridSize="10" guides="1" tooltips="1" connect="1" arrows="1" fold="1" pageScale="1" pageWidth="4000" pageHeight="4000" math="0" shadow="0">
      <root>
        <mxCell id="0"/>
        <mxCell id="1" parent="0"/>
        <object label="Webex EQ CODEC, CS-CODEC-EQ-NR++" type="matrix" id="1795760696083878034">
          <mxCell id="9185869503630230953" value="Webex EQ CODEC, CS-CODEC-EQ-NR++" style="rounded=0;whiteSpace=wrap;html=1;" parent="1" connectable="" edge="" vertex="1" source="" target="">
            <mxGeometry x="3000" y="3000" width="200" height="1200" relative="" as="geometry"/>
          </mxCell>
        </object>
        <object label="Webex EQ CODEC, CS-CODEC-EQ-NR++" type="DTP" id="9778404078424672158">
          <mxCell id="5907825512853929953" value="Webex EQ CODEC, CS-CODEC-EQ-NR++" style="rounded=0;whiteSpace=wrap;html=1;" parent="1" connectable="" edge="" vertex="1" source="" target="">
            <mxGeometry x="3400" y="3000" width="160" height="80" relative="" as="geometry"/>
          </mxCell>
        </object>
        <object label="Webex EQ CODEC, CS-CODEC-EQ-NR++" type="DTP" id="8352589779957818881">
          <mxCell id="4600289215947833485" value="Webex EQ CODEC, CS-CODEC-EQ-NR++" style="rounded=0;whiteSpace=wrap;html=1;" parent="1" connectable="" edge="" vertex="1" source="" target="">
            <mxGeometry x="3400" y="3100" width="160" height="80" relative="" as="geometry"/>
          </mxCell>
        </object>
        <object label="DA HD 4K Plus, 60-1607-01" type="DTP" id="9054726556655427048">
          <mxCell id="5908742512635272977" value="DA HD 4K Plus, 60-1607-01" style="rounded=0;whiteSpace=wrap;html=1;" parent="1" connectable="" edge="" vertex="1" source="" target="">
            <mxGeometry x="3400" y="3200" width="160" height="80" relative="" as="geometry"/>
          </mxCell>
        </object>
        <object label="232-ATSC 4K HDTV, 5114-001" type="DTP" id="2491947226613834142">
          <mxCell id="9573572509201584525" value="232-ATSC 4K HDTV, 5114-001" style="rounded=0;whiteSpace=wrap;html=1;" parent="1" connectable="" edge="" vertex="1" source="" target="">
            <mxGeometry x="3400" y="3300" width="160" height="80" relative="" as="geometry"/>
          </mxCell>
        </object>
        <object label="" type="DTP" id="5967433049564009205">
          <mxCell id="2531532723440209872" value="" style="rounded=0;whiteSpace=wrap;html=1;" parent="1" connectable="" edge="" vertex="1" source="" target="">
            <mxGeometry x="3400" y="3400" width="160" height="80" relative="" as="geometry"/>
          </mxCell>
        </object>
        <object label="" type="DTP" id="9503917593480436760">
          <mxCell id="2924242499063557631" value="" style="rounded=0;whiteSpace=wrap;html=1;" parent="1" connectable="" edge="" vertex="1" source="" target="">
            <mxGeometry x="3400" y="3500" width="160" height="80" relative="" as="geometry"/>
          </mxCell>
        </object>
        <object label="DTP 4K 230 Tx, 60-1271-12" type="DTP" id="5165844888501276785">
          <mxCell id="7549374577765809870" value="DTP 4K 230 Tx, 60-1271-12" style="rounded=0;whiteSpace=wrap;html=1;" parent="1" connectable="" edge="" vertex="1" source="" target="">
            <mxGeometry x="3400" y="3600" width="160" height="80" relative="" as="geometry"/>
          </mxCell>
        </object>
        <object label="DTP 4K 230 Tx, 60-1271-12" type="DTP" id="4037409732509426040">
          <mxCell id="8412172337633342475" value="DTP 4K 230 Tx, 60-1271-12" style="rounded=0;whiteSpace=wrap;html=1;" parent="1" connectable="" edge="" vertex="1" source="" target="">
            <mxGeometry x="3400" y="3700" width="160" height="80" relative="" as="geometry"/>
          </mxCell>
        </object>
        <object label="DTP 4K 230 Tx, 60-1271-12" type="DTP" id="5563081155969042570">
          <mxCell id="9211244528493506995" value="DTP 4K 230 Tx, 60-1271-12" style="rounded=0;whiteSpace=wrap;html=1;" parent="1" connectable="" edge="" vertex="1" source="" target="">
            <mxGeometry x="3400" y="3800" width="160" height="80" relative="" as="geometry"/>
          </mxCell>
        </object>
        <object label="DTP 4K 230 Tx, 60-1271-12" type="DTP" id="117678705091963671">
          <mxCell id="3014289879353173052" value="DTP 4K 230 Tx, 60-1271-12" style="rounded=0;whiteSpace=wrap;html=1;" parent="1" connectable="" edge="" vertex="1" source="" target="">
            <mxGeometry x="3400" y="3900" width="160" height="80" relative="" as="geometry"/>
          </mxCell>
        </object>
      </root>
    </mxGraphModel>
  </diagram>
</mxfile>
